<svg id="Capa_1" enable-background="new 0 0 497 497" height="512" viewBox="0 0 497 497" width="512" xmlns="http://www.w3.org/2000/svg"><g><path d="m164.006 497h-32.002c-14.405 0-24.954-13.789-20.937-27.628 8.331-28.721 26.693-47.581 26.693-47.581h71.58z" fill="#ff6f7f"/><path d="m120.413 446.613c14.581 12.78 33.615 22.184 56.978 28.18l31.948-53.002h-71.58c.001.001-9.064 9.321-17.346 24.822z" fill="#fc5c70"/><path d="m359.24 421.791h-149.9s-45.334 31.575-45.334 75.209h225.964c0-43.634-30.73-75.209-30.73-75.209z" fill="#5c586f"/><path d="m374.866 343.124s42.98 109.55-126.366 109.55-126.366-109.55-126.366-109.55z" fill="#ff8997"/><g><path d="m165.969 58.274c-7.975 0-14.44-6.465-14.44-14.44 0-8.245-6.708-14.953-14.954-14.953-7.975 0-14.44-6.465-14.44-14.44s6.465-14.441 14.44-14.441c24.17 0 43.834 19.664 43.834 43.834 0 7.975-6.465 14.44-14.44 14.44z" fill="#4f4c5f"/></g><circle cx="424.031" cy="235.619" fill="#ffcabd" r="42.641"/><circle cx="248.5" cy="235.619" fill="#ffdcce" r="174.56"/><path d="m242.31 61.18c-79.11 2.758-144.833 58.15-163.229 132.24-1.997-.287-4.036-.443-6.112-.443-23.55 0-42.641 19.091-42.641 42.642s19.091 42.642 42.641 42.642c2.077 0 4.116-.156 6.114-.443 12.501 50.343 46.851 92.054 92.407 114.487-34.467-36.875-55.574-86.395-55.574-140.853 0-85.61 52.14-159.038 126.394-190.272z" fill="#ffcabd"/><path d="m92.562 87.755c36.106-51.275 104.39-82.926 169.975-80.212l4.443.184c31.427 1.3 55.849 27.831 54.549 59.258-1.455 35.172-34.549 61.577-70.553 52.938-32.202-7.95-67.865 3.067-91.713 25.594-17.802 16.816-45.865 16.017-62.681-1.785-14.736-15.6-15.926-39.092-4.02-55.977z" fill="#5c586f"/><g><g><g><ellipse cx="145.161" cy="257.912" fill="#ff8997" rx="38.13" ry="30.365"/></g><g><ellipse cx="351.839" cy="257.912" fill="#ff8997" rx="38.13" ry="30.365"/></g></g></g><g><path d="m167.383 236.182c-4.143 0-7.5-3.358-7.5-7.5v-15.587c0-4.142 3.357-7.5 7.5-7.5s7.5 3.358 7.5 7.5v15.587c0 4.142-3.358 7.5-7.5 7.5z" fill="#423e4f"/></g><g><path d="m329.617 236.182c-4.143 0-7.5-3.358-7.5-7.5v-15.587c0-4.142 3.357-7.5 7.5-7.5s7.5 3.358 7.5 7.5v15.587c0 4.142-3.357 7.5-7.5 7.5z" fill="#423e4f"/></g><path d="m341.348 278.76c-35.322-8.034-49.538-47.957-87.882-18.975-2.938 2.221-6.995 2.221-9.933 0-38.344-28.982-52.56 10.941-87.882 18.975-5.4 1.228-8.235 7.181-5.613 12.059 10.655 19.826 39.489 56.516 93.507 14.339 2.91-2.273 6.999-2.273 9.909 0 54.018 42.177 82.851 5.487 93.507-14.339 2.622-4.878-.213-10.831-5.613-12.059z" fill="#e8a882"/></g></svg>