<svg id="Capa_1" enable-background="new 0 0 497 497" height="512" viewBox="0 0 497 497" width="512" xmlns="http://www.w3.org/2000/svg"><g><path d="m456.908 297.171c3.94 16.9-5.4 34.14-21.75 39.96-13.71 4.89-32.38 8.93-56.62 8.93h-74.01v-118.51h154.63c-7.44 30.06-6.09 53.17-2.25 69.62z" fill="#5c586f"/><path d="m304.528 227.551v118.51h-186.06c-24.25 0-42.92-4.04-56.63-8.93-16.34-5.82-25.69-23.06-21.74-39.96 3.84-16.45 5.19-39.56-2.26-69.62z" fill="#4f4c5f"/><path d="m102.1 497c0-66.694 45.197-103.513 45.197-103.513h202.406s45.197 36.819 45.197 103.513z" fill="#7292df"/><g><g><path d="m96.626 62.055c-8.217 0-14.879-6.662-14.879-14.879 0-8.496-6.912-15.408-15.408-15.408-8.217 0-14.879-6.662-14.879-14.879s6.661-14.878 14.879-14.878c24.905 0 45.166 20.261 45.166 45.165-.001 8.218-6.662 14.879-14.879 14.879z" fill="#fc5c70"/></g></g><path d="m459.158 227.548c0-116.157-94.501-210.658-210.658-210.658s-210.658 94.501-210.658 210.658z" fill="#5c586f"/><path d="m149.883 491.137c0-38.029 15.232-72.496 39.919-97.65h-42.505s-45.197 36.819-45.197 103.512h47.914c-.08-1.944-.131-3.897-.131-5.862z" fill="#5c84d9"/><path d="m362.767 351.322s1.873 85.965-114.266 85.965-114.266-85.965-114.266-85.965z" fill="#fc5c70"/><path d="m261.287 423.199c-6.826-16.552-22.427-26.616-38.343-26.324-11.494 11.013-15.465 29.149-8.638 45.701 5.673 13.755 17.405 23.029 30.342 25.604 5.065 1.008 10.287-1.146 13.169-5.431 7.36-10.947 9.143-25.795 3.47-39.55z" fill="#ff6f7f"/><path d="m183.733 391.521c-13.755 5.673-23.029 17.405-25.604 30.342-1.008 5.065 1.146 10.287 5.431 13.169 10.946 7.361 25.794 9.144 39.549 3.471 16.552-6.827 26.616-22.427 26.324-38.343-11.012-11.495-29.148-15.466-45.7-8.639z" fill="#ff8997"/><path d="m182.298 52.778-18.209-18.209c-74.252 32.602-126.247 106.825-126.247 192.979h80.322c-.215-4.138-.328-8.303-.328-12.494 0-62.826 24.499-119.924 64.462-162.276z" fill="#4f4c5f"/><g><g><path d="m60.885 136.505c-17.772-10.304-23.827-33.064-13.524-50.837 25.336-43.701 68.099-74.639 117.324-84.881 20.118-4.182 39.811 8.728 43.995 28.84 4.185 20.113-8.727 39.81-28.84 43.995-28.547 5.939-53.375 23.931-68.118 49.36-10.354 17.857-33.144 23.779-50.837 13.523z" fill="#ff6f7f"/></g></g><circle cx="424.441" cy="227.548" fill="#ffcabd" r="42.553"/><path d="m424.437 227.55c0 97.169-78.768 175.937-175.937 175.937s-175.937-78.768-175.937-175.937c0-14.561 1.766-28.706 5.108-42.236 132.243-40.48 170.829-102.445 170.829-102.445s38.586 61.965 170.829 102.446c3.342 13.529 5.108 27.674 5.108 42.235z" fill="#ffdcce"/><path d="m204.315 397.89c-52.798-43.377-86.479-109.172-86.479-182.837 0-15.551 1.517-30.746 4.382-45.459-13.507 5.459-28.314 10.75-44.538 15.718-1.68-.202-3.386-.318-5.121-.318-23.502 0-42.553 19.052-42.553 42.553 0 23.502 19.052 42.554 42.553 42.554 1.732 0 3.437-.116 5.115-.317 15.422 62.587 64.331 111.99 126.641 128.106z" fill="#ffcabd"/><g><g><g><ellipse cx="144.238" cy="249.276" fill="#ff8997" rx="38.471" ry="30.636"/></g><g><ellipse cx="352.762" cy="249.276" fill="#ff8997" rx="38.471" ry="30.636"/></g></g></g><g><path d="m184.97 223.438c-4.142 0-7.5-3.358-7.5-7.5 0-5.961-4.85-10.811-10.811-10.811s-10.812 4.85-10.812 10.811c0 4.142-3.358 7.5-7.5 7.5s-7.5-3.358-7.5-7.5c0-14.232 11.579-25.811 25.812-25.811s25.811 11.579 25.811 25.811c0 4.143-3.358 7.5-7.5 7.5z" fill="#423e4f"/></g><g><path d="m348.653 223.438c-4.142 0-7.5-3.358-7.5-7.5 0-5.961-4.85-10.811-10.811-10.811s-10.812 4.85-10.812 10.811c0 4.142-3.358 7.5-7.5 7.5s-7.5-3.358-7.5-7.5c0-14.232 11.579-25.811 25.812-25.811s25.811 11.579 25.811 25.811c0 4.143-3.358 7.5-7.5 7.5z" fill="#423e4f"/></g><g><path d="m248.5 253.69c-9.612 0-18.752-4.163-25.078-11.422-2.721-3.123-2.396-7.86.727-10.582 3.123-2.721 7.86-2.396 10.582.727 3.476 3.989 8.495 6.276 13.769 6.276s10.293-2.288 13.77-6.277c2.722-3.123 7.458-3.448 10.582-.726 3.123 2.721 3.448 7.459.726 10.582-6.326 7.259-15.467 11.422-25.078 11.422z" fill="#423e4f"/></g></g></svg>